<mxfile host="app.diagrams.net" agent="Mozilla/5.0 (Windows NT 10.0; Win64; x64) AppleWebKit/537.36 (KHTML, like Gecko) Chrome/128.0.0.0 Safari/537.36 Edg/128.0.0.0" version="24.7.8">
  <diagram id="f106602c-feb2-e66a-4537-3a34d633f6aa" name="Page-1">
    <mxGraphModel dx="1386" dy="1610" grid="1" gridSize="10" guides="1" tooltips="1" connect="1" arrows="1" fold="1" page="1" pageScale="1" pageWidth="1169" pageHeight="827" background="none" math="0" shadow="0">
      <root>
        <mxCell id="0" />
        <mxCell id="1" parent="0" />
        <mxCell id="Lif8JBEafslfNm7ranTe-1" value="&lt;b&gt;CCIS&lt;/b&gt;" style="fillColor=#F6F6F6;strokeColor=none;shadow=0;gradientColor=none;fontSize=14;align=left;spacing=10;fontColor=#717171;9E9E9E;verticalAlign=top;spacingTop=-4;fontStyle=0;spacingLeft=40;html=1;" parent="1" vertex="1">
          <mxGeometry x="265" y="184" width="710" height="676" as="geometry" />
        </mxCell>
        <mxCell id="Lif8JBEafslfNm7ranTe-4" value="Data Flow: CCIS API" style="fillColor=#4DA1F5;strokeColor=none;shadow=1;gradientColor=none;fontSize=14;align=left;spacingLeft=50;fontColor=#ffffff;html=1;" parent="1" vertex="1">
          <mxGeometry x="250" y="-120" width="650" height="40" as="geometry" />
        </mxCell>
        <mxCell id="Lif8JBEafslfNm7ranTe-5" style="edgeStyle=orthogonalEdgeStyle;rounded=0;elbow=vertical;html=1;labelBackgroundColor=none;startFill=1;startSize=4;endArrow=blockThin;endFill=1;endSize=4;jettySize=auto;orthogonalLoop=1;strokeColor=#4284F3;strokeWidth=2;fontSize=12;fontColor=#000000;align=left;dashed=0;exitX=1;exitY=0.5;exitDx=0;exitDy=0;entryX=0;entryY=0.5;entryDx=0;entryDy=0;" parent="1" source="Lif8JBEafslfNm7ranTe-3" target="cEKSAHbCaNsN3OeEtTBm-5" edge="1">
          <mxGeometry relative="1" as="geometry">
            <Array as="points">
              <mxPoint x="190" y="300" />
              <mxPoint x="645" y="300" />
            </Array>
          </mxGeometry>
        </mxCell>
        <mxCell id="uueP2DIrT8dm-PXU4ACH-1" value="HTTP REQUEST Once a Day" style="edgeLabel;html=1;align=center;verticalAlign=middle;resizable=0;points=[];" parent="Lif8JBEafslfNm7ranTe-5" vertex="1" connectable="0">
          <mxGeometry x="-0.6445" y="1" relative="1" as="geometry">
            <mxPoint as="offset" />
          </mxGeometry>
        </mxCell>
        <mxCell id="uueP2DIrT8dm-PXU4ACH-16" style="edgeStyle=orthogonalEdgeStyle;rounded=0;orthogonalLoop=1;jettySize=auto;html=1;entryX=0.5;entryY=1;entryDx=0;entryDy=0;exitX=0.5;exitY=0;exitDx=0;exitDy=0;dashed=0;strokeColor=#4284F3;strokeWidth=2;align=left;verticalAlign=middle;fontFamily=Helvetica;fontSize=12;fontColor=#000000;labelBackgroundColor=none;elbow=vertical;startFill=1;startSize=4;endArrow=blockThin;endFill=1;endSize=4;" parent="1" source="uueP2DIrT8dm-PXU4ACH-19" target="uueP2DIrT8dm-PXU4ACH-2" edge="1">
          <mxGeometry relative="1" as="geometry" />
        </mxCell>
        <mxCell id="uueP2DIrT8dm-PXU4ACH-18" value="HTTP REQUEST every fifteen minutes" style="edgeLabel;html=1;align=left;verticalAlign=middle;resizable=0;points=[];rounded=0;dashed=0;strokeColor=#4284F3;strokeWidth=2;fontFamily=Helvetica;fontSize=12;fontColor=#000000;labelBackgroundColor=none;" parent="uueP2DIrT8dm-PXU4ACH-16" vertex="1" connectable="0">
          <mxGeometry x="0.1496" relative="1" as="geometry">
            <mxPoint as="offset" />
          </mxGeometry>
        </mxCell>
        <mxCell id="uueP2DIrT8dm-PXU4ACH-21" style="edgeStyle=orthogonalEdgeStyle;rounded=0;orthogonalLoop=1;jettySize=auto;html=1;entryX=0.75;entryY=0;entryDx=0;entryDy=0;dashed=0;strokeColor=#4284F3;strokeWidth=2;align=left;verticalAlign=middle;fontFamily=Helvetica;fontSize=12;fontColor=#000000;labelBackgroundColor=none;elbow=vertical;startFill=1;startSize=4;endArrow=blockThin;endFill=1;endSize=4;" parent="1" source="cEKSAHbCaNsN3OeEtTBm-5" target="uueP2DIrT8dm-PXU4ACH-8" edge="1">
          <mxGeometry relative="1" as="geometry" />
        </mxCell>
        <mxCell id="cEKSAHbCaNsN3OeEtTBm-5" value="RDG Ingest Endpoint" style="strokeColor=#dddddd;shadow=1;strokeWidth=1;rounded=1;absoluteArcSize=1;arcSize=2;" parent="1" vertex="1">
          <mxGeometry x="660" y="290" width="185" height="61" as="geometry" />
        </mxCell>
        <mxCell id="uueP2DIrT8dm-PXU4ACH-2" value="EM VDP2(revenue inspection)" style="strokeColor=#dddddd;shadow=1;strokeWidth=1;rounded=1;absoluteArcSize=1;arcSize=2;" parent="1" vertex="1">
          <mxGeometry x="660" y="-50" width="185" height="60" as="geometry" />
        </mxCell>
        <mxCell id="uueP2DIrT8dm-PXU4ACH-6" value="" style="edgeStyle=orthogonalEdgeStyle;rounded=0;orthogonalLoop=1;jettySize=auto;html=1;entryX=0;entryY=0.5;entryDx=0;entryDy=0;strokeColor=#4284F3;dashed=0;strokeWidth=2;align=left;verticalAlign=middle;fontFamily=Helvetica;fontSize=12;fontColor=#000000;labelBackgroundColor=none;elbow=vertical;startFill=1;startSize=4;endArrow=blockThin;endFill=1;endSize=4;" parent="1" source="uueP2DIrT8dm-PXU4ACH-4" target="uueP2DIrT8dm-PXU4ACH-5" edge="1">
          <mxGeometry relative="1" as="geometry" />
        </mxCell>
        <mxCell id="uueP2DIrT8dm-PXU4ACH-11" value="HTTP REQUEST" style="edgeLabel;html=1;align=left;verticalAlign=middle;resizable=0;points=[];rounded=0;dashed=0;strokeColor=#4284F3;strokeWidth=2;fontFamily=Helvetica;fontSize=12;fontColor=#000000;labelBackgroundColor=none;" parent="uueP2DIrT8dm-PXU4ACH-6" vertex="1" connectable="0">
          <mxGeometry x="-0.6272" y="-1" relative="1" as="geometry">
            <mxPoint x="-13" y="13" as="offset" />
          </mxGeometry>
        </mxCell>
        <mxCell id="dDXMyxGnjNUTMCInh3wV-3" style="edgeStyle=orthogonalEdgeStyle;rounded=0;orthogonalLoop=1;jettySize=auto;html=1;exitX=0.75;exitY=0;exitDx=0;exitDy=0;entryX=0;entryY=0.5;entryDx=0;entryDy=0;strokeWidth=2;strokeColor=#4284F3;" parent="1" source="uueP2DIrT8dm-PXU4ACH-4" target="dDXMyxGnjNUTMCInh3wV-2" edge="1">
          <mxGeometry relative="1" as="geometry" />
        </mxCell>
        <mxCell id="dDXMyxGnjNUTMCInh3wV-5" style="edgeStyle=orthogonalEdgeStyle;rounded=0;orthogonalLoop=1;jettySize=auto;html=1;exitX=1;exitY=0.5;exitDx=0;exitDy=0;entryX=0.5;entryY=1;entryDx=0;entryDy=0;strokeWidth=2;strokeColor=#4284F3;" parent="1" source="uueP2DIrT8dm-PXU4ACH-4" target="dDXMyxGnjNUTMCInh3wV-4" edge="1">
          <mxGeometry relative="1" as="geometry" />
        </mxCell>
        <mxCell id="uueP2DIrT8dm-PXU4ACH-4" value="CASC(Railcard updates)" style="strokeColor=#dddddd;shadow=1;strokeWidth=1;rounded=1;absoluteArcSize=1;arcSize=2;" parent="1" vertex="1">
          <mxGeometry x="492" y="970" width="185" height="60" as="geometry" />
        </mxCell>
        <mxCell id="uueP2DIrT8dm-PXU4ACH-9" value="" style="edgeStyle=orthogonalEdgeStyle;rounded=0;orthogonalLoop=1;jettySize=auto;html=1;dashed=0;strokeColor=#4284F3;strokeWidth=2;align=left;verticalAlign=middle;fontFamily=Helvetica;fontSize=12;fontColor=#000000;labelBackgroundColor=none;elbow=vertical;startFill=1;startSize=4;endArrow=blockThin;endFill=1;endSize=4;" parent="1" source="uueP2DIrT8dm-PXU4ACH-5" target="uueP2DIrT8dm-PXU4ACH-8" edge="1">
          <mxGeometry relative="1" as="geometry" />
        </mxCell>
        <mxCell id="uueP2DIrT8dm-PXU4ACH-10" value="HTTP Request" style="edgeLabel;html=1;align=left;verticalAlign=middle;resizable=0;points=[];rounded=0;dashed=0;strokeColor=#4284F3;strokeWidth=2;fontFamily=Helvetica;fontSize=12;fontColor=#000000;labelBackgroundColor=none;" parent="uueP2DIrT8dm-PXU4ACH-9" vertex="1" connectable="0">
          <mxGeometry x="-0.4563" y="3" relative="1" as="geometry">
            <mxPoint as="offset" />
          </mxGeometry>
        </mxCell>
        <mxCell id="uueP2DIrT8dm-PXU4ACH-5" value="Add Discount Endpoint" style="strokeColor=#dddddd;shadow=1;strokeWidth=1;rounded=1;absoluteArcSize=1;arcSize=2;" parent="1" vertex="1">
          <mxGeometry x="475" y="590" width="185" height="60" as="geometry" />
        </mxCell>
        <mxCell id="uueP2DIrT8dm-PXU4ACH-7" value="" style="group" parent="1" vertex="1" connectable="0">
          <mxGeometry x="100" y="184" width="90" height="230" as="geometry" />
        </mxCell>
        <mxCell id="Lif8JBEafslfNm7ranTe-3" value="RDG&lt;div&gt;(validate&amp;nbsp;&lt;/div&gt;&lt;div&gt;railcards)&lt;/div&gt;" style="rounded=1;absoluteArcSize=1;arcSize=2;html=1;strokeColor=none;gradientColor=none;shadow=0;dashed=0;fontSize=12;fontColor=#9E9E9E;align=left;verticalAlign=top;spacing=10;spacingTop=-4;fillColor=#F1F8E9;" parent="uueP2DIrT8dm-PXU4ACH-7" vertex="1">
          <mxGeometry width="90" height="230" as="geometry" />
        </mxCell>
        <mxCell id="Lif8JBEafslfNm7ranTe-9" value="" style="strokeColor=#dddddd;fillColor=#ffffff;shadow=1;strokeWidth=1;rounded=1;absoluteArcSize=1;arcSize=2;labelPosition=center;verticalLabelPosition=middle;align=center;verticalAlign=bottom;spacingLeft=0;fontColor=#999999;fontSize=12;whiteSpace=wrap;spacingBottom=2;html=1;" parent="uueP2DIrT8dm-PXU4ACH-7" vertex="1">
          <mxGeometry x="10" y="95.5" width="70" height="70" as="geometry" />
        </mxCell>
        <mxCell id="Lif8JBEafslfNm7ranTe-10" value="" style="dashed=0;connectable=0;html=1;fillColor=#757575;strokeColor=none;shape=mxgraph.gcp2.laptop;part=1;" parent="Lif8JBEafslfNm7ranTe-9" vertex="1">
          <mxGeometry x="0.5" width="50" height="33" relative="1" as="geometry">
            <mxPoint x="-25" y="18.5" as="offset" />
          </mxGeometry>
        </mxCell>
        <mxCell id="uueP2DIrT8dm-PXU4ACH-8" value="FAE" style="strokeColor=#dddddd;shadow=1;strokeWidth=1;rounded=1;absoluteArcSize=1;arcSize=2;" parent="1" vertex="1">
          <mxGeometry x="1140" y="520" width="165" height="60" as="geometry" />
        </mxCell>
        <mxCell id="uueP2DIrT8dm-PXU4ACH-14" value="Hotlist a card" style="text;html=1;align=center;verticalAlign=middle;whiteSpace=wrap;rounded=0;" parent="1" vertex="1">
          <mxGeometry x="420" y="260" width="60" height="30" as="geometry" />
        </mxCell>
        <mxCell id="uueP2DIrT8dm-PXU4ACH-15" value="Tell FAE that the card is hotlisted" style="text;html=1;align=center;verticalAlign=middle;whiteSpace=wrap;rounded=0;" parent="1" vertex="1">
          <mxGeometry x="1020" y="250" width="60" height="30" as="geometry" />
        </mxCell>
        <mxCell id="uueP2DIrT8dm-PXU4ACH-19" value="Timer Based Service" style="strokeColor=#dddddd;shadow=1;strokeWidth=1;rounded=1;absoluteArcSize=1;arcSize=2;" parent="1" vertex="1">
          <mxGeometry x="660" y="200" width="185" height="60" as="geometry" />
        </mxCell>
        <mxCell id="uueP2DIrT8dm-PXU4ACH-22" value="CCIS Database" style="strokeWidth=2;html=1;shape=mxgraph.flowchart.database;whiteSpace=wrap;" parent="1" vertex="1">
          <mxGeometry x="600" y="390" width="100" height="70" as="geometry" />
        </mxCell>
        <mxCell id="uueP2DIrT8dm-PXU4ACH-27" style="edgeStyle=orthogonalEdgeStyle;rounded=0;orthogonalLoop=1;jettySize=auto;html=1;entryX=1;entryY=0.5;entryDx=0;entryDy=0;entryPerimeter=0;" parent="1" source="uueP2DIrT8dm-PXU4ACH-5" target="uueP2DIrT8dm-PXU4ACH-22" edge="1">
          <mxGeometry relative="1" as="geometry" />
        </mxCell>
        <mxCell id="uueP2DIrT8dm-PXU4ACH-29" value="Store Discount" style="edgeLabel;html=1;align=center;verticalAlign=middle;resizable=0;points=[];" parent="uueP2DIrT8dm-PXU4ACH-27" vertex="1" connectable="0">
          <mxGeometry x="0.2" y="2" relative="1" as="geometry">
            <mxPoint x="1" as="offset" />
          </mxGeometry>
        </mxCell>
        <mxCell id="uueP2DIrT8dm-PXU4ACH-28" style="edgeStyle=orthogonalEdgeStyle;rounded=0;orthogonalLoop=1;jettySize=auto;html=1;entryX=1;entryY=0.15;entryDx=0;entryDy=0;entryPerimeter=0;" parent="1" source="cEKSAHbCaNsN3OeEtTBm-5" target="uueP2DIrT8dm-PXU4ACH-22" edge="1">
          <mxGeometry relative="1" as="geometry" />
        </mxCell>
        <mxCell id="uueP2DIrT8dm-PXU4ACH-30" value="Store Hotlist" style="edgeLabel;html=1;align=center;verticalAlign=middle;resizable=0;points=[];" parent="uueP2DIrT8dm-PXU4ACH-28" vertex="1" connectable="0">
          <mxGeometry x="-0.0796" y="-2" relative="1" as="geometry">
            <mxPoint as="offset" />
          </mxGeometry>
        </mxCell>
        <mxCell id="dDXMyxGnjNUTMCInh3wV-2" value="Eligibility Check Endpoint - &#xa;Association,&#xa;Expired,&#xa;available&#xa; " style="strokeColor=#dddddd;shadow=1;strokeWidth=1;rounded=1;absoluteArcSize=1;arcSize=2;" parent="1" vertex="1">
          <mxGeometry x="677" y="650" width="185" height="60" as="geometry" />
        </mxCell>
        <mxCell id="dDXMyxGnjNUTMCInh3wV-4" value="Customer\Agent Transactions - &#xa;Add, remove, transfer&#xa;Disassociation,&#xa;limit overrides" style="strokeColor=#dddddd;shadow=1;strokeWidth=1;rounded=1;absoluteArcSize=1;arcSize=2;" parent="1" vertex="1">
          <mxGeometry x="677" y="760" width="185" height="60" as="geometry" />
        </mxCell>
        <mxCell id="UWwhtRLq5gvlbaL_WYV_-1" value="Hotlist cards that shouldnt be used" style="text;html=1;align=center;verticalAlign=middle;whiteSpace=wrap;rounded=0;" vertex="1" parent="1">
          <mxGeometry x="100" y="500" width="60" height="30" as="geometry" />
        </mxCell>
      </root>
    </mxGraphModel>
  </diagram>
</mxfile>
